<?xml version="1.0" encoding="utf-8"?>
<!-- Generator: Adobe Illustrator 22.1.0, SVG Export Plug-In . SVG Version: 6.00 Build 0)  -->
<svg version="1.1" id="Calque_1" xmlns="http://www.w3.org/2000/svg" xmlns:xlink="http://www.w3.org/1999/xlink" x="0px" y="0px"
	 viewBox="0 0 877 744" style="enable-background:new 0 0 877 744;" xml:space="preserve">
<style type="text/css">
	.st0{fill:#3F3D56;}
	.st1{fill:#FFFFFF;}
	.st2{fill:#E6E6E6;}
	.st3{fill:#B566D1;}
	.st4{fill:#A0616A;}
	.st5{fill:#2F2E41;}
</style>
<g id="Group_6" transform="translate(-231.222 -125)">
	<path id="Path_80" class="st0" d="M1073.4,160.2H810.2c-26.2,0-48.8,18.1-54.6,43.7l-133,590c-5.5,24.4,9.8,48.6,34.2,54.1
		c2.5,0.6,5.1,0.9,7.7,1.1l270.6,13.3c30,1.5,56.4-19.5,61.7-49l75.5-417.1l5.6,1.6l14.4-79.1l-5.8-1.4l21.1-116.4
		c3.4-18.7-9-36.7-27.8-40C1077.7,160.4,1075.6,160.2,1073.4,160.2L1073.4,160.2z"/>
	<path id="Path_81" class="st1" d="M844.8,172.9h-30.7c-18.2,0-33.9,12.7-37.8,30.4L648.7,788.5c-2.8,12.9,5.4,25.7,18.3,28.5
		c1.2,0.3,2.4,0.4,3.5,0.5l269.7,17.7c15.8,1,29.8-9.9,32.6-25.5l108.9-604.8c2.7-14.8-7.2-28.9-21.9-31.6c-1.6-0.3-3.2-0.4-4.8-0.4
		h-29.1c-5.8,0-10.9,3.9-12.4,9.5l0,0c-1.3,4.9-5.8,8.4-10.9,8.4H864.2C854,190.8,845.6,183,844.8,172.9z"/>
	<path id="Path_93" class="st2" d="M994,582c1.1,0,2-0.7,2.2-1.8l59.7-329.2c0.1-0.6-0.1-1.3-0.5-1.8c-0.4-0.5-1-0.8-1.6-0.8
		l-271.4-3.2h0c-1,0-1.9,0.7-2.1,1.7l-70.3,318.5c-0.1,0.6,0,1.3,0.4,1.8c0.4,0.5,1,0.8,1.6,0.9L994,582z"/>
	<path id="Path_94" class="st2" d="M758.4,603.3c-0.5,0-0.9,0.4-1.1,0.8l-2.5,10.9c-0.1,0.6,0.2,1.2,0.8,1.3c0.1,0,0.1,0,0.2,0
		l143.6,10.2c0.6,0,1-0.3,1.2-0.9l2.4-12.6c0.1-0.6-0.3-1.2-0.9-1.3c0,0-0.1,0-0.1,0L758.4,603.3L758.4,603.3z"/>
	<path id="Path_95" class="st2" d="M932.9,667c0.5,0,1-0.3,1.1-0.8l3.1-12.6c0.1-0.6-0.2-1.2-0.8-1.3c-0.1,0-0.1,0-0.2,0
		l-183.3-12.8c-0.5,0-1,0.3-1.1,0.8l-3.2,10.9c-0.2,0.6,0.2,1.2,0.7,1.4c0.1,0,0.1,0,0.2,0L932.9,667z"/>
	<path id="Path_96" class="st2" d="M923,707.5c0.5,0,1-0.3,1.1-0.8l3.1-12.6c0.1-0.6-0.2-1.2-0.8-1.3c-0.1,0-0.1,0-0.2,0L743,679.9
		c-0.5,0-1,0.3-1.1,0.8l-3.2,10.9c-0.2,0.6,0.2,1.2,0.7,1.4c0.1,0,0.1,0,0.2,0L923,707.5z"/>
	<path id="Path_79" class="st2" d="M605.1,850c0,9.2-83.8,10.1-187,16.6c-103.1,6.4-187-7.4-187-16.6c0-9.2,84.3-27.6,187-16.6
		C521.3,844.5,605.1,840.9,605.1,850z"/>
	<path id="Path_97" class="st3" d="M838.6,776.7c0.5,0.1,1-0.3,1.2-0.8l6.6-26.3c0.1-0.6-0.2-1.2-0.8-1.3c-0.1,0-0.1,0-0.2,0
		l-112.6-9.5c-0.5,0-1,0.3-1.2,0.9l-5.6,25.3c-0.1,0.6,0.2,1.2,0.8,1.3c0,0,0.1,0,0.1,0L838.6,776.7z"/>
	<path id="Path_111" class="st4" d="M384,669.5c5.4-3.7,6.7-11,3.1-16.3c-0.4-0.6-0.8-1.1-1.3-1.6l4.6-101.8l-23.2,2.6l1.3,99.5
		c-4.3,4.9-3.9,12.3,1,16.7C373.4,672.2,379.5,672.6,384,669.5L384,669.5z"/>
	<path id="Path_112" class="st4" d="M426.3,841.8l13.2,2.3l13.1-49.8l-17.3-3.4L426.3,841.8z"/>
	<path id="Path_113" class="st5" d="M462.8,860.8l-41.5-7.3l2.8-16l25.5,4.5C458.5,843.5,464.4,852,462.8,860.8L462.8,860.8
		L462.8,860.8z"/>
	<path id="Path_114" class="st4" d="M390,848.4h13.4l6.4-51.7H390L390,848.4z"/>
	<path id="Path_115" class="st5" d="M429.3,860.8l-42.2,0l0-16.3l25.9,0C422,844.5,429.3,851.8,429.3,860.8L429.3,860.8L429.3,860.8
		L429.3,860.8z"/>
	<path id="Path_116" class="st5" d="M446,829.8c-0.2,0-0.4,0-0.6,0l-15.8-1.3c-2.9-0.3-5-3-4.7-5.9c0-0.1,0-0.2,0-0.3l15.7-77.3
		l-9.8-51.9c-0.2-1-1.1-1.6-2.1-1.4c-0.8,0.1-1.4,0.8-1.4,1.6l-14.5,132c-0.3,2.9-2.8,5-5.7,4.9l-14.9-0.6c-2.7-0.2-4.8-2.4-5-5.1
		l1.2-159.5l77.1-9.6l5.4,83.2l0,0.1l-19.7,87.2C450.6,828.1,448.5,829.8,446,829.8z"/>
	<circle id="Ellipse_16" class="st4" cx="413.8" cy="457" r="26.9"/>
	<path id="Path_117" class="st3" d="M439.1,677.1c-4.2,0-8.3-1.2-11.9-3.4c-13-8.1-27.8-4.9-35.5-2.3c-1.5,0.5-3.2,0.3-4.6-0.5
		c-1.4-0.9-2.3-2.3-2.4-3.9l-13.9-124.3c-2.3-20.8,10.2-40.4,29.8-46.6l0,0c0.7-0.2,1.5-0.4,2.2-0.7c12.4-3.4,25.6-1.1,36.1,6.3
		c10.7,7.4,17.6,19.2,18.8,32.1L469.5,659c0.2,1.6-0.5,3.3-1.7,4.4C463.7,667.2,451.8,677.1,439.1,677.1z"/>
	<path id="Path_118" class="st3" d="M396.8,569.4l-31.4-3.5c-3.4-0.4-5.9-3.5-5.5-6.9c0-0.3,0.1-0.6,0.2-0.9l8-30.5
		c1-9.5,9.5-16.5,19.1-15.5c9.5,1,16.5,9.5,15.5,19.1c0,0.1,0,0.2,0,0.3l1.2,31.4c0.1,3.5-2.6,6.4-6,6.5
		C397.4,569.4,397.1,569.4,396.8,569.4L396.8,569.4z"/>
	<path id="Path_119" class="st4" d="M469.4,665.1c4.9-4.3,5.3-11.7,1.1-16.6c-0.5-0.5-1-1-1.5-1.4l-7.7-101.6l-22.7,5.1l13.3,98.9
		c-3.7,5.4-2.4,12.7,3,16.4C459.2,669.1,465.3,668.8,469.4,665.1L469.4,665.1z"/>
	<path id="Path_120" class="st3" d="M429.7,563c-1.3-1.2-2.1-3-2-4.8l1.2-31.4c-1.1-9.5,5.8-18.1,15.3-19.2
		c9.5-1.1,18.1,5.8,19.2,15.3l8,30.5c0.9,3.3-1.1,6.8-4.5,7.6c-0.3,0.1-0.6,0.1-0.9,0.2l-31.4,3.5
		C432.9,564.8,431.1,564.2,429.7,563L429.7,563z"/>
	<path id="Path_121" class="st5" d="M412.2,484.8c-0.5,0-1-0.1-1.4-0.2l-0.1,0c-23.6-3.6-28.8-17.3-30-23
		c-1.2-5.9,0.2-11.6,3.2-13.8c-1.7-5.3-1.4-9.9,0.8-13.9c3.8-6.9,12.1-9.2,13.2-9.5c6.6-4.9,14.6-1.6,16-1
		c12.8-4.7,17.7-0.8,18.6,0.1c5.7,1,9.2,3.2,10.4,6.6c2.2,6.3-4.7,14.1-5,14.4l-0.2,0.2l-10.3,0.5c-3.8,0.2-6.8,3.4-6.6,7.3
		c0,0.2,0,0.5,0.1,0.7l0,0c0.3,1.2,0.6,2.5,1.1,3.7c1.8,5.5,3.1,10.2,1.4,11.9c-0.8,0.7-1.9,0.9-2.9,0.5c-1.6-0.4-2.7-0.3-3.2,0.3
		c-0.8,0.9-0.6,3.3,0.7,6.7c0.8,2.2,0.4,4.6-1.1,6.4C415.7,484.1,414,484.8,412.2,484.8L412.2,484.8z"/>
</g>
</svg>
