<?xml version="1.0" encoding="utf-8"?>
<!-- Generator: Adobe Illustrator 22.1.0, SVG Export Plug-In . SVG Version: 6.00 Build 0)  -->
<svg version="1.1" id="be454bab-2889-49bf-9d82-a1b13c4d4a30"
	 xmlns="http://www.w3.org/2000/svg" xmlns:xlink="http://www.w3.org/1999/xlink" x="0px" y="0px" viewBox="0 0 877 744"
	 style="enable-background:new 0 0 877 744;" xml:space="preserve">
<style type="text/css">
	.st0{fill:#F2F2F2;}
	.st1{fill:#CCCCCC;}
	.st2{fill:#FFFFFF;}
	.st3{fill:#5E90FF;}
	.st4{fill:#A0616A;}
	.st5{fill:#B566D1;}
	.st6{fill:#3F3D56;}
	.st7{fill:#2F2E41;}
	.st8{fill:#FF6584;}
</style>
<path class="st0" d="M55.2,742.1c0-27.7,22.4-50.1,50.1-50.1s50.1,22.4,50.1,50.1"/>
<path class="st1" d="M105.3,742.1c-0.7,0-1.4-0.6-1.4-1.4v-26.4c0-0.7,0.6-1.4,1.4-1.4c0.7,0,1.4,0.6,1.4,1.4v26.4
	C106.7,741.4,106.1,742.1,105.3,742.1z"/>
<path class="st1" d="M105.3,733c-0.3,0-0.6-0.1-0.9-0.3l-16.2-13.9c-0.6-0.5-0.6-1.3-0.2-1.9c0.5-0.6,1.3-0.6,1.9-0.2c0,0,0,0,0,0
	l16.2,13.9c0.6,0.5,0.6,1.3,0.1,1.9C106.1,732.8,105.7,733,105.3,733z"/>
<path class="st0" d="M209.5,742.1c0-27.7,22.4-50.1,50.1-50.1s50.1,22.4,50.1,50.1"/>
<path class="st1" d="M259.6,742.1c-0.7,0-1.4-0.6-1.4-1.4v-26.4c0-0.7,0.6-1.4,1.4-1.4s1.4,0.6,1.4,1.4v26.4
	C261,741.4,260.4,742.1,259.6,742.1z"/>
<path class="st1" d="M259.6,733c-0.3,0-0.6-0.1-0.9-0.3l-16.2-13.9c-0.6-0.5-0.6-1.3-0.1-1.9c0.5-0.6,1.3-0.6,1.9-0.1l16.2,13.9
	c0.6,0.5,0.6,1.3,0.1,1.9C260.4,732.8,260,733,259.6,733z"/>
<circle class="st2" cx="313.8" cy="312.2" r="20.3"/>
<path class="st3" d="M313.8,291.9c-11.2,0-20.3,9.1-20.3,20.3s9.1,20.3,20.3,20.3c11.2,0,20.3-9.1,20.3-20.3S325,291.9,313.8,291.9
	L313.8,291.9z M308.9,321c0,0.3-0.3,0.6-0.6,0.6h-4.6c-0.3,0-0.6-0.3-0.6-0.6v-10.9c0-0.3,0.3-0.6,0.6-0.6h4.6
	c0.3,0,0.6,0.3,0.6,0.6l0,0V321z M324.4,312.5c0,0.9-0.8,1.7-1.7,1.7v0c0.8,0.2,1.3,0.9,1.1,1.7c-0.1,0.6-0.6,1-1.1,1.1v0.6
	c0.6,0,1.1,0.5,1.1,1.1c0,0.6-0.5,1.1-1.1,1.1h-11.4c-0.3,0-0.6-0.3-0.6-0.6v-9.2c0-2.9,4.6-6.9,4.6-6.9v-1.4c0-1,0.8-1.7,1.7-1.7
	c0.8,0,1.5,0.5,1.7,1.3l0,0.1c0.2,2-0.3,4-1.4,5.7h3.5c0.1,0,0.1,0,0.2,0h1.7C321.7,309.2,322.5,311.5,324.4,312.5L324.4,312.5
	L324.4,312.5z"/>
<circle class="st2" cx="343.6" cy="194.4" r="28.4"/>
<path class="st3" d="M343.6,166c-15.7,0-28.4,12.7-28.4,28.4s12.7,28.4,28.4,28.4c15.7,0,28.4-12.7,28.4-28.4l0,0
	C372,178.7,359.3,166,343.6,166z M336.7,206.8c0,0.4-0.4,0.8-0.8,0.8h-6.4c-0.4,0-0.8-0.4-0.8-0.8v-15.2c0-0.4,0.4-0.8,0.8-0.8h6.4
	c0.4,0,0.8,0.4,0.8,0.8L336.7,206.8z M358.4,194.8c0,1.3-1.1,2.4-2.4,2.4v0c1.1,0.2,1.8,1.3,1.6,2.4c-0.2,0.8-0.8,1.4-1.6,1.6v0.8
	c0.9,0,1.6,0.7,1.6,1.6c0,0.9-0.7,1.6-1.6,1.6h-16c-0.4,0-0.8-0.4-0.8-0.8v-12.8c0-4,6.4-9.6,6.4-9.6v-2c0-1.3,1.1-2.4,2.4-2.4
	c1.1,0,2.1,0.8,2.4,1.9c0,0,0,0.1,0,0.1c0.8,4-1.9,8-1.9,8h4.9c0.1,0,0.1,0,0.2,0h2.4c1.3,0,2.4,1.1,2.4,2.4c0,1.3-1.1,2.4-2.4,2.4
	C357.3,192.4,358.4,193.5,358.4,194.8L358.4,194.8z"/>
<path class="st4" d="M406.8,499.3c7.8-1.8,12.7-9.6,10.9-17.5c-0.2-0.8-0.5-1.6-0.8-2.4l53.6-121.1l-30.7-7.7L396.8,472
	c-7.2,3.7-10.1,12.5-6.4,19.7C393.5,497.7,400.3,500.8,406.8,499.3L406.8,499.3z"/>
<path class="st5" d="M455.1,396.2l-29.8-14c-3.3-1.5-4.7-5.4-3.1-8.7c0.1-0.3,0.3-0.6,0.5-0.8l18.1-27.4c4.3-9,15.1-12.9,24.1-8.6
	c9,4.3,12.8,15,8.6,24l-9.4,31.4c-1,3.4-4.7,5.4-8.1,4.4C455.7,396.4,455.4,396.3,455.1,396.2L455.1,396.2z"/>
<path class="st6" d="M351.4,380.6l32.9,23.3c0.9,0.6,2,0.6,2.9,0l8.9-6.7c1.1-0.8,1.3-2.3,0.5-3.4c-0.1-0.1-0.2-0.3-0.4-0.4
	L371,370.8c-0.7-0.6-1.6-0.8-2.5-0.5l-16.5,5.9c-1.3,0.5-1.9,1.9-1.5,3.2C350.7,379.9,351,380.3,351.4,380.6L351.4,380.6z"/>
<path class="st2" d="M354.4,378.8l29.6,21c0.3,0.2,0.7,0.2,1,0l8-6c0.4-0.3,0.5-0.8,0.2-1.2c0,0,0,0,0,0c0,0-0.1-0.1-0.1-0.1
	l-22.8-20.4c-0.2-0.2-0.6-0.3-0.9-0.2l-14.8,5.3c-0.5,0.2-0.7,0.7-0.5,1.1C354.2,378.5,354.3,378.7,354.4,378.8L354.4,378.8z"/>
<polygon class="st4" points="471.3,727.7 454.7,727.7 446.8,663.6 471.3,663.7 "/>
<path class="st7" d="M475.5,743.8l-53.5,0v-0.7c0-11.5,9.3-20.8,20.8-20.8c0,0,0,0,0,0h0l32.7,0L475.5,743.8z"/>
<polygon class="st4" points="526.8,727.7 510.2,727.7 502.3,663.6 526.8,663.7 "/>
<path class="st7" d="M531,743.8l-53.5,0v-0.7c0-11.5,9.3-20.8,20.8-20.8c0,0,0,0,0,0h0l32.7,0L531,743.8z"/>
<path class="st7" d="M526,709.9c-0.2,0-0.3,0-0.5,0l-19.1-1.4c-2.7-0.2-4.9-2.2-5.5-4.8l-33.1-181.9c-0.2-1.1-1.3-1.8-2.4-1.6
	c-1,0.2-1.7,1.1-1.6,2.1l11.8,179.2c0.3,3.4-2.2,6.3-5.6,6.5c-0.2,0-0.3,0-0.5,0H455c-2.5,0-4.8-1.5-5.7-3.9
	C412.8,608.5,426,421,426.1,419.1l1.4-1.4l0,0l72.8,12.6l0.2,0.1c24.9,18.3,35.6,232.2,31.7,272.9c0,1.7-0.7,3.4-1.8,4.7
	C529.2,709.2,527.6,709.9,526,709.9z"/>
<circle class="st4" cx="434.5" cy="274.8" r="33.2"/>
<path class="st5" d="M510.8,461.2c-0.3,0-0.7,0-1-0.1l-85.4-11c-3.1-0.6-5.2-3.9-5.1-7.6l8.2-45.1c-10.8-13.5-0.6-48.5,6-57.3
	l-2.6-6.9c-0.7-1.8-0.7-3.8-0.1-5.6c0.5-1.7,1.7-3.2,3.2-4l34.7-18.4c3.1-1.6,6.7,0,8,3.7l6.8,18.4l-0.1,0.1
	c16.3,8.7,30.7,17.3,19.9,63.4l13.6,63.6c0,2-0.9,3.9-2.3,5.3C513.6,460.6,512.2,461.2,510.8,461.2z"/>
<path class="st4" d="M390.3,386.7c0.5,0.5,1,1.1,1.5,1.7l67-4.6l7.2-14.6l23.5,8l-10.2,27.2c-1.7,4.5-6.2,7.4-11,7l-76.2-5.8
	c-4.6,6.4-13.5,7.8-19.8,3.2c-6.4-4.6-7.8-13.5-3.2-19.8c4.6-6.4,13.5-7.8,19.8-3.2C389.4,385.9,389.9,386.3,390.3,386.7
	L390.3,386.7z"/>
<path class="st5" d="M457.6,380.5c-0.7-1.6-0.6-3.5,0.2-5.1l13.8-27.3c3-8.9,12.5-13.7,21.4-10.7c8.8,2.9,13.6,12.5,10.7,21.3
	l-5.3,30.2c-0.6,3.3-3.7,5.5-7.1,4.9c-0.3-0.1-0.6-0.1-0.9-0.2l-29.2-9.7C459.6,383.4,458.2,382.1,457.6,380.5z"/>
<path class="st8" d="M353,358.2c-0.6,0.5-1.5,0.5-2,0l-0.8-0.7c-6.4-5.8-10-9.6-10-14.4c0-3.9,2.4-6.8,6.3-6.8c2.1,0,4.2,1,5.6,2.6
	c1.4-1.6,3.4-2.6,5.6-2.6c3.8,0,6.3,3,6.3,6.8c0,4.7-3.7,8.5-10,14.4L353,358.2z"/>
<path class="st8" d="M306.6,277.4c-1.1,1-2.8,1-3.9,0l-1.5-1.3C289,264.9,282,257.6,282,248.5c0-7.4,4.7-13.1,12-13.1
	c4.1,0,8,1.9,10.6,5c2.6-3.1,6.5-5,10.6-5c7.3,0,12,5.7,12,13.1c0,9-7,16.3-19.2,27.5L306.6,277.4z"/>
<path class="st8" d="M308.5,150.9c-1.4,1.3-3.6,1.3-5,0l-1.9-1.7c-15.8-14.5-25-24-25-35.7c0-9.6,6.1-17,15.6-17
	c5.3,0,10.4,2.4,13.8,6.5c3.4-4.1,8.5-6.5,13.8-6.5c9.5,0,15.6,7.4,15.6,17c0,11.7-9.1,21.2-25,35.7L308.5,150.9z"/>
<path class="st1" d="M874.4,744H2.6c-0.7,0-1.4-0.6-1.4-1.4c0-0.7,0.6-1.4,1.4-1.4h871.8c0.7,0,1.4,0.6,1.4,1.4
	C875.7,743.4,875.1,744,874.4,744z"/>
<circle class="st7" cx="453.2" cy="221.5" r="27.1"/>
<path class="st7" d="M403.1,278.9c-2.6,0.3-5.5,0.5-7.8-0.7c-2.6-1.5-4.3-4.1-4.7-7c-5-33.5,23.5-30.8,26.8-32.2
	c2.3-1,3.9-2.9,6-4.3c4.4-3.1,10.2-3.3,15.6-3.4c6.4-0.1,13-0.2,18.9,2.3c5.3,2.5,9.7,6.5,12.6,11.6c2.9,5,5,10.5,6.2,16.2
	c1.6,6.5,2.7,13.3,1.1,19.8c-2.8,10.1-11.8,17.2-22.2,17.8c2.2-7.7-2.6-16.3-9.7-20.1c-5.7-2.8-12.2-3.6-18.4-2.2
	c-4,0.8-8.1,1.3-12.2,1.5C411.1,278.3,406.3,278.6,403.1,278.9z"/>
<path class="st0" d="M837.3,383c0-65.3-53-220.4-118.4-220.4S600.5,317.7,600.5,383c0.1,65.4,53.1,118.3,118.5,118.3
	C784.3,501.3,837.2,448.4,837.3,383z"/>
<path class="st1" d="M718.9,742.6c-0.7,0-1.4-0.6-1.4-1.4V367.5c0-0.7,0.6-1.4,1.4-1.4c0.7,0,1.4,0.6,1.4,1.4v373.8
	C720.3,742,719.7,742.6,718.9,742.6z"/>
<path class="st1" d="M718.9,419.1c-0.4,0-0.8-0.2-1-0.5l-68.1-78.5c-0.5-0.6-0.4-1.4,0.1-1.9c0.6-0.5,1.4-0.4,1.9,0.1l68.1,78.5
	c0.5,0.6,0.4,1.4-0.1,1.9C719.6,419,719.2,419.1,718.9,419.1z"/>
<path class="st1" d="M718.9,464.4c-0.7,0-1.4-0.6-1.4-1.4c0-0.4,0.1-0.7,0.4-1l38.7-38.7c0.5-0.5,1.4-0.5,1.9,0
	c0.5,0.5,0.5,1.4,0,1.9L719.9,464C719.6,464.3,719.3,464.4,718.9,464.4z"/>
<path class="st1" d="M718.9,613.3c-0.7,0-1.4-0.6-1.4-1.4c0-0.4,0.1-0.7,0.4-1l38.7-38.7c0.5-0.5,1.4-0.5,1.9,0
	c0.5,0.5,0.5,1.4,0,1.9l-38.7,38.7C719.6,613.2,719.3,613.3,718.9,613.3z"/>
</svg>
