<?xml version="1.0" encoding="utf-8"?>
<!-- Generator: Adobe Illustrator 22.1.0, SVG Export Plug-In . SVG Version: 6.00 Build 0)  -->
<svg version="1.1" id="Calque_1" xmlns="http://www.w3.org/2000/svg" xmlns:xlink="http://www.w3.org/1999/xlink" x="0px" y="0px"
	 viewBox="0 0 82.9 82.9" style="enable-background:new 0 0 82.9 82.9;" xml:space="preserve">
<style type="text/css">
	.st0{fill:#FFFFFF;}
</style>
<title>icons</title>
<path d="M82.4,38.2v5.3c-1.3,18.7-14.8,34.9-33.7,38.2c-1.6,0.3-3.1,0.4-4.6,0.5h-4.7c-13.4-0.7-25.9-8-33.1-19.8
	c-3.5-5.7-5.3-12.1-5.7-18.5v-5c0-0.1,0-0.3,0-0.4c0-0.2,0-0.4,0.1-0.7c0.3-3.7,1.1-7.2,2.4-10.7c6.2-16.4,21.5-26.6,38-26.8h1.4
	c4.4,0.1,9,0.9,13.3,2.6c14.8,5.6,24.9,19.1,26.5,34.6C82.3,37.8,82.4,37.9,82.4,38.2z"/>
<g>
	<path class="st0" d="M82.9,40.9L82.9,40.9c0-0.7-0.1-1.3-0.1-1.9c0-0.5-0.1-1-0.1-1.4c-1.5-15.7-11.8-29.3-26.8-35
		c-4.5-1.7-9-2.5-13.5-2.6H41C24.3,0.2,8.8,10.5,2.6,27.1c-1.3,3.5-2.1,7.2-2.4,10.8c0,0.2,0,0.5-0.1,0.7c0,0.1,0,0.3,0,0.4
		c-0.1,1.7-0.1,3.4,0,5.1C0.5,50.6,2.5,57,5.9,62.8c7.2,12,19.8,19.3,33.5,20c1.6,0.1,3.2,0.1,4.8,0s3.1-0.3,4.7-0.5
		C68,78.9,81.7,62.5,83,43.6c0-0.7,0.1-1.4,0.1-2.1C83,41.3,83,41.1,82.9,40.9z M54.4,77.7c-20,7.2-42-3.2-49.2-23.2
		C3.5,49.8,2.8,45,3,40.1c0-1,0.1-2,0.2-3c0.6-5.4,2.4-10.7,5.3-15.5C17,7.7,33.3,0.6,49.3,3.8c16.5,3.4,28.3,17.1,30.3,33.4
		c0.1,1,0.2,2,0.3,3c0,0.4,0,0.9,0.1,1.3C79.6,57.5,69.7,72.2,54.4,77.7z"/>
	<path class="st0" d="M82.9,38.2v0.5c0,0.1-0.1,0.2-0.1,0.3c-0.2,0.5-0.6,0.9-1.3,1c-0.1,0-0.2,0-0.3,0c-0.5,0-0.9,0.1-1.4,0.1
		C73,41.2,68,46.3,60.7,46c-7.1-0.3-12.1-6-19.2-6c-7.4,0-12.5,6-20,6c-7,0-11.9-4.9-18.5-5.9c-0.5,0-1-0.1-1.5-0.1
		c-0.9,0-1.3-0.7-1.4-1.4c0-0.2,0-0.4,0.1-0.7c0.1-0.5,0.6-1,1.3-1c0.6,0,1.2,0.1,1.7,0.2c6.8,1,12,6.1,19.1,5.8
		c7-0.3,11.9-6,19.2-6c7.5,0,12.7,6,20,6c6.7,0,11.7-4.7,18.1-5.8c0.6-0.1,1.3-0.2,1.9-0.2s1,0.2,1.2,0.6
		C82.8,37.8,82.9,37.9,82.9,38.2z"/>
</g>
</svg>
