<?xml version="1.0" encoding="utf-8"?>
<!-- Generator: Adobe Illustrator 22.1.0, SVG Export Plug-In . SVG Version: 6.00 Build 0)  -->
<svg version="1.1" id="Calque_1" xmlns="http://www.w3.org/2000/svg" xmlns:xlink="http://www.w3.org/1999/xlink" x="0px" y="0px"
	 viewBox="0 0 48.2 48.2" style="enable-background:new 0 0 48.2 48.2;" xml:space="preserve">
<style type="text/css">
	.st0{fill:#FFFFFF;}
</style>
<path d="M47.6,24.1c0,0.1,0,0.1,0,0.2c0,0.1-0.1,0.1-0.1,0.2L40.8,31v9.3c0,0.1,0,0.1,0,0.2c0,0.1-0.1,0.2-0.3,0.3
	c-0.1,0-0.1,0-0.2,0H31l-6.6,6.6c0,0-0.1,0.1-0.2,0.1c-0.1,0-0.1,0-0.2,0c-0.1,0-0.1,0-0.2,0c-0.1,0-0.1-0.1-0.2-0.1l-6.6-6.6H7.8
	c-0.1,0-0.1,0-0.2,0c-0.1,0-0.2-0.1-0.3-0.3c0-0.1,0-0.1,0-0.2V31l-6.6-6.6c0,0-0.1-0.1-0.1-0.2c0,0,0-0.1,0-0.1V24c0,0,0-0.1,0-0.1
	c0-0.1,0.1-0.1,0.1-0.2l6.6-6.6V7.8c0-0.1,0-0.1,0-0.2c0-0.1,0.1-0.2,0.3-0.3c0.1,0,0.1,0,0.2,0h9.3l6.6-6.6c0,0,0.1-0.1,0.2-0.1
	s0.1,0,0.2,0s0.1,0,0.2,0c0.1,0,0.1,0.1,0.2,0.1L31,7.3h9.3c0.1,0,0.1,0,0.2,0c0.1,0,0.2,0.1,0.3,0.3c0,0.1,0,0.1,0,0.2v9.3l6.6,6.6
	c0,0,0.1,0.1,0.1,0.2C47.6,24,47.6,24,47.6,24.1z"/>
<path class="st0" d="M48.1,23.9c0-0.1-0.1-0.1-0.1-0.2L41.3,17V7.4c0-0.1,0-0.1,0-0.2c0-0.1-0.1-0.2-0.3-0.3c-0.1,0-0.1,0-0.2,0
	h-9.6l-6.8-6.8c0,0-0.1-0.1-0.2-0.1c-0.1,0-0.1,0-0.2,0S24,0,23.9,0s-0.1,0.1-0.2,0.1L17,6.9H7.4c-0.1,0-0.1,0-0.2,0
	C7.1,7,7,7.1,6.9,7.2c0,0.1,0,0.1,0,0.2V17l-6.8,6.8c0,0-0.1,0.1-0.1,0.2c0,0,0,0.1,0,0.1v0.2c0,0,0,0.1,0,0.1
	c0,0.1,0.1,0.1,0.1,0.2l6.8,6.8v9.6c0,0.1,0,0.1,0,0.2c0,0.1,0.2,0.2,0.3,0.3c0.1,0,0.1,0,0.2,0H17l6.8,6.8c0.1,0,0.1,0.1,0.2,0.1
	c0.1,0,0.1,0,0.2,0c0.1,0,0.1,0,0.2,0c0.1,0,0.1-0.1,0.2-0.1l6.8-6.8h9.6c0.1,0,0.1,0,0.2,0c0.1,0,0.2-0.2,0.3-0.3
	c0-0.1,0-0.1,0-0.2v-9.6l6.8-6.8c0-0.1,0.1-0.1,0.1-0.2s0-0.1,0-0.2S48.2,24,48.1,23.9z M6.9,29.8l-5.2-5.2h5.2V29.8z M6.9,23.6H1.7
	l5.2-5.2V23.6z M16,7.9l-3.7,3.7L8.6,7.9H16z M7.9,8.6l3.7,3.7L7.9,16V8.6z M7.9,17.4l4.4-4.4l10.6,10.6h-15V17.4z M7.9,24.6h15
	L12.3,35.2l-4.4-4.4V24.6z M7.9,32.2l3.7,3.7l-3.7,3.7V32.2z M8.6,40.3l3.7-3.7l3.7,3.7H8.6z M23.6,46.5l-5.2-5.2h5.2V46.5z
	 M23.6,40.3h-6.2L13,35.9l10.6-10.6V40.3z M23.6,22.9L13,12.3l4.4-4.4h6.2V22.9z M23.6,6.9h-5.2l5.2-5.2V6.9z M39.6,7.9l-3.7,3.7
	l-3.7-3.7H39.6z M24.6,1.7l5.2,5.2h-5.2V1.7z M24.6,7.9h6.2l4.4,4.4L24.6,22.9V7.9z M24.6,46.5v-5.2h5.2L24.6,46.5z M30.8,40.3h-6.2
	v-15l10.6,10.6L30.8,40.3z M32.2,40.3l3.7-3.7l3.7,3.7H32.2z M40.3,39.6l-3.7-3.7l3.7-3.7V39.6z M40.3,30.8l-4.4,4.4L25.3,24.6h15
	V30.8z M40.3,23.6h-15L35.9,13l4.4,4.4V23.6z M40.3,16l-3.7-3.7l3.7-3.7V16z M41.3,29.8v-5.2h5.2L41.3,29.8z M41.3,23.6v-5.2
	l5.2,5.2H41.3z"/>
</svg>
